<svg width="100" height="100" viewBox="0 0 100 100" fill="none" xmlns="http://www.w3.org/2000/svg">
<g clip-path="url(#clip0_1_2)">
<rect width="100" height="100" rx="20" fill="#D6B860"/>
<path d="M57.132 31.5C57.212 31.5 57.252 31.62 57.252 31.86C57.252 32.1 57.212 32.22 57.132 32.22C55.812 32.22 54.852 32.34 54.252 32.58C53.652 32.82 53.232 33.24 52.992 33.84C52.792 34.4 52.692 35.28 52.692 36.48V70.68C52.692 74.64 51.772 77.78 49.932 80.1C48.092 82.46 45.432 83.64 41.952 83.64C40.592 83.64 39.532 83.4 38.772 82.92C37.972 82.48 37.572 81.86 37.572 81.06C37.572 80.46 37.752 79.98 38.112 79.62C38.472 79.26 38.972 79.08 39.612 79.08C40.292 79.08 40.812 79.22 41.172 79.5C41.532 79.82 41.912 80.28 42.312 80.88C42.672 81.44 42.992 81.84 43.272 82.08C43.552 82.32 43.952 82.44 44.472 82.44C45.912 82.44 46.972 81.6 47.652 79.92C48.372 78.28 48.732 75.62 48.732 71.94V36.36C48.732 35.16 48.592 34.28 48.312 33.72C48.032 33.16 47.472 32.78 46.632 32.58C45.832 32.34 44.572 32.22 42.852 32.22C42.772 32.22 42.732 32.1 42.732 31.86C42.732 31.62 42.772 31.5 42.852 31.5L46.332 31.56C48.172 31.64 49.612 31.68 50.652 31.68C51.692 31.68 52.972 31.64 54.492 31.56L57.132 31.5Z" fill="#1C1A1B"/>
</g>
<defs>
<clipPath id="clip0_1_2">
<rect width="100" height="100" rx="20" fill="white"/>
</clipPath>
</defs>
</svg>
